<svg xmlns="http://www.w3.org/2000/svg" viewBox="0 0 400 400" width="400" height="400"><path d="M170.76 337.68c-.15-2-.41-4-.42-5.94v-96c0-7-.41-13.89-.63-20.83-7.09-.28-14.18-.66-21.26-.8-6.79-.14-13.59 0-20.73 0V163.5c1.95-.09 3.73-.23 5.51-.24 10.33 0 20.67-.23 31 .09 4.68.14 6.43-1 6.26-6-.37-11.15-.15-22.33-.09-33.49.17-36.68 24.92-61.51 61.58-61.5 11.47 0 22.95.72 34.43 1 4.19.12 6.11 1.51 5.95 6.27-.38 11.32-.11 22.66-.14 34 0 1.62-.16 3.25-.28 5.51h-6.1c-9.31.28-18.64.32-27.92 1s-15.13 6.28-15.71 15.64c-.68 11.11-.6 22.28-1 33.42-.13 3.48 1.48 4.17 4.53 4.14 12.83-.1 25.66 0 38.49 0h6.13c-.77 6.39-1.42 12.09-2.15 17.78-1.25 9.71-2.7 19.41-3.73 29.14-.35 3.37-1.85 4-4.81 4-10.66-.11-21.33 0-32 0-6.42 0-6.42 0-6.42 6.66v111c0 2-.27 4-.41 5.94z"/></svg>