<svg xmlns="http://www.w3.org/2000/svg"><symbol id="arrow" viewBox="0 0 400 400"><defs><style>.cls-1{fill:#202020}</style></defs><path d="M75.29 185.49h209l-23.23-23.24a14.29 14.29 0 0 1 0-20.19 14.29 14.29 0 0 1 20.19 0l57.75 57.7-57.71 57.71a14.29 14.29 0 0 1-20.19 0 14.29 14.29 0 0 1 0-20.19L284.32 214h-209A14.28 14.28 0 0 1 61 199.76a14.27 14.27 0 0 1 14.29-14.27z" class="cls-1"/></symbol><symbol id="half-star" viewBox="0 0 241.06 400"><path d="M200 49.18a1.27 1.27 0 0 0-1.23.9l-36.63 112.74a1.3 1.3 0 0 1-1.24.89H42.36a1.3 1.3 0 0 0-.76 2.35l95.9 69.67a1.28 1.28 0 0 1 .47 1.45l-36.63 112.74a1.3 1.3 0 0 0 2 1.45l95.9-69.68a1.32 1.32 0 0 1 .76-.24z"/></symbol><symbol id="ig" viewBox="0 0 400 400"><path d="M199.91 128.29a71.38 71.38 0 1 0 71.37 71.38 71.38 71.38 0 0 0-71.37-71.38zm0 117.74a46.36 46.36 0 1 1 46.36-46.36A46.36 46.36 0 0 1 199.91 246z"/><circle cx="274.1" cy="125.66" r="16.65" transform="rotate(-13.28 274.168 125.687)"/><path d="M331.66 291.27a102.28 102.28 0 0 0 6.49-33.76c.65-14.86.84-19.56.84-57.28s0-42.5-.84-57.27a102.22 102.22 0 0 0-6.49-34.23A71.1 71.1 0 0 0 291 68.11a102 102 0 0 0-33.76-6.49c-14.86-.66-19.56-.85-57.27-.85s-42.51 0-57.27.85a102 102 0 0 0-33.7 6.49 71.1 71.1 0 0 0-40.63 40.62 102.28 102.28 0 0 0-6.49 33.76c-.65 14.86-.84 19.56-.84 57.28s0 42.5.84 57.27a102.28 102.28 0 0 0 6.49 33.76A71.1 71.1 0 0 0 109 331.42a102 102 0 0 0 33.76 7c14.86.66 19.56.85 57.27.85s42.51 0 57.27-.85a102 102 0 0 0 33.7-6.53 71.1 71.1 0 0 0 40.66-40.62zM313 255.91h-.19a76.77 76.77 0 0 1-4.8 26 46.09 46.09 0 0 1-26.42 26.42 77.14 77.14 0 0 1-25.77 4.8c-14.67.66-18.81.84-56.42.84s-41.4.03-56.4-.79a77.19 77.19 0 0 1-25.77-4.8A46 46 0 0 1 90.72 282a76.88 76.88 0 0 1-4.79-25.77c-.66-14.67-.85-18.81-.85-56.42s0-41.48.85-56.43a77 77 0 0 1 4.79-26 46 46 0 0 1 26.52-26.42A76.69 76.69 0 0 1 143 86.07c14.67-.66 18.81-.85 56.43-.85s41.47 0 56.42.85a76.64 76.64 0 0 1 25.77 4.8 46.09 46.09 0 0 1 26.42 26.42 76.89 76.89 0 0 1 4.8 25.77c.66 14.67.85 18.81.85 56.42s.01 41.66-.69 56.43z"/></symbol><symbol id="fb" viewBox="0 0 400 400"><path d="M170.76 337.68c-.15-2-.41-4-.42-5.94v-96c0-7-.41-13.89-.63-20.83-7.09-.28-14.18-.66-21.26-.8-6.79-.14-13.59 0-20.73 0V163.5c1.95-.09 3.73-.23 5.51-.24 10.33 0 20.67-.23 31 .09 4.68.14 6.43-1 6.26-6-.37-11.15-.15-22.33-.09-33.49.17-36.68 24.92-61.51 61.58-61.5 11.47 0 22.95.72 34.43 1 4.19.12 6.11 1.51 5.95 6.27-.38 11.32-.11 22.66-.14 34 0 1.62-.16 3.25-.28 5.51h-6.1c-9.31.28-18.64.32-27.92 1s-15.13 6.28-15.71 15.64c-.68 11.11-.6 22.28-1 33.42-.13 3.48 1.48 4.17 4.53 4.14 12.83-.1 25.66 0 38.49 0h6.13c-.77 6.39-1.42 12.09-2.15 17.78-1.25 9.71-2.7 19.41-3.73 29.14-.35 3.37-1.85 4-4.81 4-10.66-.11-21.33 0-32 0-6.42 0-6.42 0-6.42 6.66v111c0 2-.27 4-.41 5.94z"/></symbol><symbol id="star" viewBox="0 0 400 400"><path d="M201.23 50.08l36.63 112.74a1.3 1.3 0 0 0 1.24.89h118.54a1.3 1.3 0 0 1 .76 2.35l-95.9 69.67a1.28 1.28 0 0 0-.47 1.45l36.63 112.74a1.3 1.3 0 0 1-2 1.45l-95.9-69.68a1.29 1.29 0 0 0-1.52 0l-95.9 69.68a1.3 1.3 0 0 1-2-1.45L138 237.18a1.28 1.28 0 0 0-.47-1.45L41.6 166.06a1.3 1.3 0 0 1 .76-2.35H160.9a1.3 1.3 0 0 0 1.24-.89l36.63-112.74a1.29 1.29 0 0 1 2.46 0z"/></symbol><symbol id="twitter" viewBox="0 0 400 400"><path d="M29.1 307.87c38.33 3.45 72.33-5.83 103-29-32.08-2.77-53.55-18.76-65.51-48.89 10.77 1.31 20.79 1.5 31.4-1.48-16.66-4-30-12.06-40.34-24.91s-15.45-27.63-15.44-44.78c9.84 5 19.71 8.13 31.45 8.52-15.35-11.16-25.18-25.1-29.11-42.73S43.14 90 52.22 73.77c38.05 44.69 86.08 69.3 144.7 73.35-.45-4.59-1-8.76-1.25-12.94C193 90 233.86 53.89 277.55 61.74a69.14 69.14 0 0 1 37.22 19c1.76 1.73 3.29 2 5.59 1.44A143.53 143.53 0 0 0 358 67.85c1-.54 1.95-1 3.45-1.78a55.37 55.37 0 0 1-11.37 21.45c-5.21 6-11.24 11.26-17.19 17.11 6.29-1.34 12.7-2.41 18.92-4.11s12.22-4 19-6.35c-2.89 3.86-5.08 7.6-8 10.57-7.92 8-16.1 15.71-24.34 23.36a6.13 6.13 0 0 0-2.29 5.09c.51 60.38-20.77 111.87-64.1 153.83-27.25 26.39-60.2 42.27-97.52 48.9-36.68 6.52-72.65 3.82-107.72-9a195.32 195.32 0 0 1-36.25-17.8c-.28-.25-.59-.54-1.49-1.25z"/></symbol></svg>