<svg xmlns="http://www.w3.org/2000/svg" viewBox="0 0 400 400" width="400" height="400"><path d="M199.91 128.29a71.38 71.38 0 1 0 71.37 71.38 71.38 71.38 0 0 0-71.37-71.38zm0 117.74a46.36 46.36 0 1 1 46.36-46.36A46.36 46.36 0 0 1 199.91 246z"/><circle cx="274.1" cy="125.66" r="16.65" transform="rotate(-13.28 274.168 125.687)"/><path d="M331.66 291.27a102.28 102.28 0 0 0 6.49-33.76c.65-14.86.84-19.56.84-57.28s0-42.5-.84-57.27a102.22 102.22 0 0 0-6.49-34.23A71.1 71.1 0 0 0 291 68.11a102 102 0 0 0-33.76-6.49c-14.86-.66-19.56-.85-57.27-.85s-42.51 0-57.27.85a102 102 0 0 0-33.7 6.49 71.1 71.1 0 0 0-40.63 40.62 102.28 102.28 0 0 0-6.49 33.76c-.65 14.86-.84 19.56-.84 57.28s0 42.5.84 57.27a102.28 102.28 0 0 0 6.49 33.76A71.1 71.1 0 0 0 109 331.42a102 102 0 0 0 33.76 7c14.86.66 19.56.85 57.27.85s42.51 0 57.27-.85a102 102 0 0 0 33.7-6.53 71.1 71.1 0 0 0 40.66-40.62zM313 255.91h-.19a76.77 76.77 0 0 1-4.8 26 46.09 46.09 0 0 1-26.42 26.42 77.14 77.14 0 0 1-25.77 4.8c-14.67.66-18.81.84-56.42.84s-41.4.03-56.4-.79a77.19 77.19 0 0 1-25.77-4.8A46 46 0 0 1 90.72 282a76.88 76.88 0 0 1-4.79-25.77c-.66-14.67-.85-18.81-.85-56.42s0-41.48.85-56.43a77 77 0 0 1 4.79-26 46 46 0 0 1 26.52-26.42A76.69 76.69 0 0 1 143 86.07c14.67-.66 18.81-.85 56.43-.85s41.47 0 56.42.85a76.64 76.64 0 0 1 25.77 4.8 46.09 46.09 0 0 1 26.42 26.42 76.89 76.89 0 0 1 4.8 25.77c.66 14.67.85 18.81.85 56.42s.01 41.66-.69 56.43z"/></svg>