<svg xmlns="http://www.w3.org/2000/svg" viewBox="0 0 1254.07 261.35" width="1254.07" height="261.35"><path d="M41.6 60.2a41.64 41.64 0 0 1 34.75-18.6c27.43 0 46.05 16.77 46.05 40.25 0 19.21-4.48 86.41-5.79 93a24.61 24.61 0 0 1-49.09-3c0-8.53-5.49-81.1-5.49-90A19.43 19.43 0 0 0 45 60.3a19.72 19.72 0 0 0-3.4-.1zM220.51 83a41.67 41.67 0 0 0-34.76-18.6c-27.43 0-46 16.77-46 40.25 0 19.21 4.48 86.4 5.79 93a24.61 24.61 0 0 0 49.09-3c0-8.54 5.49-81.1 5.49-89.94a19.42 19.42 0 0 1 17-21.56 19.19 19.19 0 0 1 3.39-.15zm72.74-17.72a3.2 3.2 0 0 1 3.09-3.09h19.35a3.08 3.08 0 0 1 3.08 3.09v41h46.49v-41a3.08 3.08 0 0 1 3.09-3.09h19.35a3.2 3.2 0 0 1 3.09 3.09v107.61a3.21 3.21 0 0 1-3.09 3.11h-19.35a3.09 3.09 0 0 1-3.09-3.09v-42.77h-46.49v42.75a3.09 3.09 0 0 1-3.08 3.09h-19.35a3.21 3.21 0 0 1-3.09-3.09zm173.93-4.71a58.52 58.52 0 1 1-58.35 58.68 58.41 58.41 0 0 1 58.35-58.68zm0 91a32.51 32.51 0 1 0 0-65c-17.72 0-32.35 14.8-32.35 32.68a32.54 32.54 0 0 0 32.35 32.34zm76.4-88.08a3.05 3.05 0 0 1 3.08-2.92h4.07L615.59 123h.16V65.28a3.08 3.08 0 0 1 3.09-3.09h19.5a3.19 3.19 0 0 1 3.09 3.09v109.4a3.05 3.05 0 0 1-3.09 2.92h-2.6a4.73 4.73 0 0 1-2.11-.81l-64.21-64.53h-.16v60.63a3.09 3.09 0 0 1-3.09 3.09h-19.34a3.2 3.2 0 0 1-3.09-3.09zm124.18 1.79a3.08 3.08 0 0 1 3.09-3.09h67.3a3.08 3.08 0 0 1 3.09 3.09V83a3.09 3.09 0 0 1-3.09 3.09h-45v20.15h37.06a3.2 3.2 0 0 1 3.09 3.09v17.72a3.08 3.08 0 0 1-3.09 3.09h-37.09v21.94h45a3.08 3.08 0 0 1 3.09 3.09v17.72a3.09 3.09 0 0 1-3.09 3.09h-67.3a3.09 3.09 0 0 1-3.09-3.09zm114.6 55.92l-35.92-54.29a3 3 0 0 1 2.6-4.72h21.13a3.23 3.23 0 0 1 2.6 1.46L795.37 97 818 63.65a3 3 0 0 1 2.6-1.46h21.13a3 3 0 0 1 2.6 4.72L807.88 121v51.85a3.2 3.2 0 0 1-3.09 3.09h-19.34a3.09 3.09 0 0 1-3.09-3.09zm73.31-55.92a3.08 3.08 0 0 1 3.09-3.09h37.87c19.18 0 35 13.17 35 30.24 0 12.51-11.21 21.61-18.85 25.68 8.61 3.58 21.78 11.54 21.78 26.5 0 18.2-16.09 31.37-35.44 31.37h-40.36a3.09 3.09 0 0 1-3.09-3.09zm38 43.08a11.6 11.6 0 0 0 11.38-11.71c0-6.5-5.21-11.05-11.38-11.05H881v22.76zm2.11 44.37a11.79 11.79 0 0 0 11.7-11.86c0-6.51-7-11.38-13.33-11.38H881v23.24zm57.74-87.45a3.2 3.2 0 0 1 3.09-3.09h19.51a3.2 3.2 0 0 1 3.09 3.09v107.61a3.21 3.21 0 0 1-3.09 3.09h-19.51a3.21 3.21 0 0 1-3.09-3.09zm52.02 0a3.08 3.08 0 0 1 3.09-3.09h48.6a35.35 35.35 0 0 1 35.44 35.11c0 15-9.92 27-24.06 32.68l22.27 41.28a3.08 3.08 0 0 1-2.77 4.72h-21.61a3 3 0 0 1-2.61-1.47l-21.62-43.07h-11.21v41.45A3.2 3.2 0 0 1 1028 176h-19.34a3.09 3.09 0 0 1-3.09-3.09zm49.58 45.51c6.66 0 12.35-6.17 12.35-13a12.45 12.45 0 0 0-12.35-12.35h-24.06v25.35zm57.7-45.51a3.05 3.05 0 0 1 2.93-3.09h39.66c31.37 0 57.06 25.52 57.06 56.73a57.13 57.13 0 0 1-57.06 57.08h-39.66a3.06 3.06 0 0 1-2.93-3.09zm41 86.64c18.37 0 31.7-14.47 31.7-33 0-18.37-13.33-32.83-31.7-32.83h-15.6v65.83z"/></svg>