<svg xmlns="http://www.w3.org/2000/svg" viewBox="0 0 400 400" width="400" height="400"><path d="M29.1 307.87c38.33 3.45 72.33-5.83 103-29-32.08-2.77-53.55-18.76-65.51-48.89 10.77 1.31 20.79 1.5 31.4-1.48-16.66-4-30-12.06-40.34-24.91s-15.45-27.63-15.44-44.78c9.84 5 19.71 8.13 31.45 8.52-15.35-11.16-25.18-25.1-29.11-42.73S43.14 90 52.22 73.77c38.05 44.69 86.08 69.3 144.7 73.35-.45-4.59-1-8.76-1.25-12.94C193 90 233.86 53.89 277.55 61.74a69.14 69.14 0 0 1 37.22 19c1.76 1.73 3.29 2 5.59 1.44A143.53 143.53 0 0 0 358 67.85c1-.54 1.95-1 3.45-1.78a55.37 55.37 0 0 1-11.37 21.45c-5.21 6-11.24 11.26-17.19 17.11 6.29-1.34 12.7-2.41 18.92-4.11s12.22-4 19-6.35c-2.89 3.86-5.08 7.6-8 10.57-7.92 8-16.1 15.71-24.34 23.36a6.13 6.13 0 0 0-2.29 5.09c.51 60.38-20.77 111.87-64.1 153.83-27.25 26.39-60.2 42.27-97.52 48.9-36.68 6.52-72.65 3.82-107.72-9a195.32 195.32 0 0 1-36.25-17.8c-.28-.25-.59-.54-1.49-1.25z"/></svg>