<svg xmlns="http://www.w3.org/2000/svg" width="73" height="46" viewBox="0 0 73 46">
  <g id="Visa" transform="translate(0.5 0.5)">
    <rect id="Rounded_Rectangle_1_copy_8" data-name="Rounded Rectangle 1 copy 8" width="72" height="45" rx="6" fill="#fff" stroke="#d9d9d9" stroke-linejoin="round" stroke-width="1"/>
    <path id="Path_63" data-name="Path 63" d="M37.914,25.309,34.08,36.068l-.412-2.186a12.459,12.459,0,0,0-5.424-6.589L31.75,41.072H35.9l6.167-15.762ZM41.2,41.077,43.649,25.3h3.921L45.117,41.077H41.2ZM59.326,25.683a9.332,9.332,0,0,0-3.511-.665c-3.876,0-6.6,2.141-6.623,5.2-.025,2.275,1.948,3.537,3.431,4.295,1.527.773,2.039,1.268,2.032,1.959-.014,1.054-1.222,1.534-2.348,1.534a7.524,7.524,0,0,1-3.681-.827l-.509-.246-.548,3.53a11.39,11.39,0,0,0,4.366.844c4.114,0,6.788-2.12,6.82-5.394.017-1.8-1.03-3.163-3.293-4.29-1.365-.731-2.212-1.214-2.2-1.956,0-.656.709-1.355,2.25-1.355a6.52,6.52,0,0,1,2.931.606l.349.182.533-3.421Zm10.043-.374H66.345a1.941,1.941,0,0,0-2.056,1.31L58.473,41.075h4.118s.675-1.943.823-2.371l5.014.008c.122.554.479,2.362.479,2.362h3.638L69.37,25.306h0Zm-4.83,10.17c.328-.9,1.563-4.41,1.563-4.41-.025.042.318-.915.521-1.506l.262,1.364s.753,3.765.907,4.552H64.54Z" transform="translate(-12.357 -10.945)" fill="#1a1f71" fill-rule="evenodd"/>
    <path id="Shape_12_copy" data-name="Shape 12 copy" d="M27.356,25.057h-6.32L21,25.328a13.333,13.333,0,0,1,9.5,8.31l-1.37-7.249A1.648,1.648,0,0,0,27.356,25.057Z" transform="translate(-9.188 -10.962)" fill="#f2ae14" fill-rule="evenodd"/>
  </g>
</svg>
